<svg width="53" height="36" viewBox="0 0 53 36" fill="none" xmlns="http://www.w3.org/2000/svg">
<path d="M19.7092 11.8477L2.15915 0H0V1.21798L15.7784 11.8477H19.7092Z" fill="black"/>
<path d="M32.8301 23.3633L50.4909 35.2109H52.5946V33.993L36.8162 23.3633H32.8301Z" fill="black"/>
<path d="M15.7784 23.3633L0 33.993V35.2109H2.10379L19.7646 23.3633H15.7784Z" fill="black"/>
<path d="M50.4358 0L32.8857 11.8477H36.8165L52.5949 1.21798V0H50.4358Z" fill="black"/>
<path d="M30.0067 0H22.5881V13.8961H0V21.3147H22.5881V35.2108H30.0067V21.3147H52.5948V13.8961H30.0067V0Z" fill="black"/>
<path d="M20.5389 35.2102V25.4663L6.14453 35.2102H20.5389Z" fill="black"/>
<path d="M0 3.93018V11.8471H11.7923L0 3.93018Z" fill="black"/>
<path d="M32.0557 0V9.68851L46.3947 0H32.0557Z" fill="black"/>
<path d="M52.595 31.3355V23.3633H40.8027L52.595 31.3355Z" fill="black"/>
<path d="M52.595 11.8473V3.875L40.8027 11.8473H52.595Z" fill="black"/>
<path d="M20.5389 0H6.14453L20.5389 9.68851V0Z" fill="black"/>
<path d="M0 23.3633V31.2802L11.7923 23.3633H0Z" fill="black"/>
<path d="M32.0557 35.2102H46.3947L32.0557 25.4663V35.2102Z" fill="black"/>
</svg>
