<svg width="39" height="39" viewBox="0 0 39 39" fill="none" xmlns="http://www.w3.org/2000/svg">
<path d="M38.4864 36.1825L29.7897 27.5019C32.2741 24.5061 33.6291 20.7338 33.6188 16.8419C33.6253 13.5152 32.6445 10.2615 30.8006 7.49255C28.9568 4.72364 26.3328 2.56409 23.2609 1.28732C20.189 0.0105566 16.8073 -0.326011 13.544 0.320231C10.2807 0.966474 7.28257 2.56646 4.92912 4.91763C2.57568 7.2688 0.972792 10.2654 0.323395 13.5281C-0.326002 16.7907 0.00729758 20.1727 1.28109 23.2459C2.55489 26.319 4.7119 28.9451 7.47903 30.7916C10.2462 32.6381 13.499 33.6221 16.8256 33.6189C20.7176 33.6291 24.4898 32.2741 27.4857 29.7897L36.1824 38.4865C36.488 38.792 36.9024 38.9636 37.3344 38.9636C37.7665 38.9636 38.1809 38.792 38.4864 38.4865C38.792 38.1809 38.9636 37.7666 38.9636 37.3345C38.9636 36.9024 38.792 36.488 38.4864 36.1825ZM24.127 9.55672C22.7583 8.17313 21.0256 7.20554 19.1296 6.76596C18.7215 6.66038 18.3705 6.40011 18.1509 6.04026C17.9314 5.6804 17.8605 5.24922 17.9533 4.83801C18.0461 4.4268 18.2952 4.06784 18.6481 3.83715C19.0009 3.60645 19.4296 3.52212 19.8435 3.60202C22.344 4.17136 24.6297 5.44365 26.431 7.26895C26.7332 7.57295 26.9028 7.98418 26.9028 8.41283C26.9028 8.84148 26.7332 9.25271 26.431 9.55672C26.2802 9.70879 26.1007 9.8295 25.903 9.91187C25.7053 9.99425 25.4932 10.0367 25.279 10.0367C25.0648 10.0367 24.8528 9.99425 24.655 9.91187C24.4573 9.8295 24.2779 9.70879 24.127 9.55672ZM28.6052 14.2621C28.4223 14.3245 28.2306 14.3574 28.0373 14.3594C27.7058 14.3605 27.3819 14.26 27.1092 14.0714C26.8366 13.8829 26.6282 13.6153 26.5122 13.3048C26.4517 13.1278 26.3813 12.9545 26.3012 12.7856C26.2158 12.5886 26.1702 12.3767 26.1673 12.1621C26.1643 11.9474 26.204 11.7343 26.284 11.5351C26.364 11.3359 26.4827 11.1546 26.6332 11.0016C26.7838 10.8486 26.9633 10.727 27.1612 10.6438C27.5571 10.4763 28.0033 10.4728 28.4018 10.634C28.8004 10.7953 29.1186 11.1081 29.2867 11.5038C29.384 11.7309 29.4814 11.9418 29.5625 12.169C29.6378 12.3692 29.6727 12.5824 29.6653 12.7961C29.6578 13.0099 29.6082 13.2201 29.5192 13.4146C29.4303 13.6092 29.3037 13.7842 29.1468 13.9296C28.99 14.0751 28.8059 14.188 28.6052 14.2621Z" fill="black"/>
</svg>
