<svg width="51" height="27" viewBox="0 0 51 27" fill="none" xmlns="http://www.w3.org/2000/svg">
<path d="M44.1613 11.9146C45.5229 12.6619 45.8714 13.9181 46.1018 15.251C46.3717 16.8121 46.6047 18.3835 46.9752 19.922C47.1815 20.7783 48.0464 20.6021 48.652 20.5059C50.6965 20.181 51.342 20.9571 50.8355 22.9342C50.2948 25.045 48.8376 25.7858 46.859 25.9624C43.6492 26.249 40.4442 26.6161 37.2285 26.8029C34.2927 26.9735 31.3449 27.0149 28.4031 26.9957C24.7652 26.9719 21.1282 26.8241 17.4906 26.7351C13.969 26.6491 10.4461 26.5993 6.92593 26.4739C5.28968 26.4175 3.65733 26.2801 2.03504 26.0624C0.363371 25.8359 -0.0953244 25.2935 0.0156681 23.6813C0.0784724 22.6726 0.284737 21.6776 0.628418 20.7254C0.753876 20.4882 0.933797 20.2832 1.15385 20.1266C1.37391 19.9701 1.62803 19.8663 1.89597 19.8235C2.05162 19.8366 2.20834 19.8181 2.35639 19.769C2.50444 19.7199 2.64067 19.6413 2.75661 19.5381C2.87255 19.435 2.96572 19.3094 3.03034 19.1693C3.09496 19.0291 3.12965 18.8774 3.13224 18.7235C3.34892 17.5539 3.64944 16.3996 3.8989 15.2355C4.02381 14.6525 3.93465 13.9364 4.25176 13.4976C5.51438 11.7503 7.41475 11.3926 9.43639 11.5681C9.68157 11.6103 9.93319 11.5986 10.1732 11.5337C10.4133 11.4689 10.6358 11.3526 10.8249 11.1932C11.3405 10.7363 11.9917 10.4553 12.6821 10.392C13.3725 10.3286 14.0653 10.4863 14.6576 10.8415C16.7435 12.1965 18.5984 11.521 20.5783 10.799C23.7634 9.63749 26.9703 8.53373 30.1707 7.41295C31.2857 7.02248 32.4052 6.64478 33.5293 6.27984C33.8111 6.21027 34.0609 6.0494 34.2387 5.82307C34.4165 5.59675 34.5119 5.3181 34.5097 5.0319C34.6657 2.79256 36.1786 1.38259 37.856 0.231166C38.7438 -0.378201 39.7871 0.356115 40.6383 0.836691C41.6444 1.40466 41.8869 2.42081 41.8694 3.48229C41.828 3.80414 41.8888 4.13071 42.0434 4.41715C42.198 4.70358 42.4388 4.93581 42.7327 5.08195C43.9379 5.76755 44.5795 6.9815 45.0919 8.18963C45.5586 9.29015 44.7705 10.2658 44.4482 11.277C44.3654 11.495 44.2696 11.7078 44.1613 11.9146ZM3.64772 20.3516C3.52092 21.2241 4.21057 21.5974 4.8326 21.7561C7.02981 22.3166 9.24112 22.855 11.4769 23.2283C13.6225 23.5865 15.8006 23.7864 17.9727 23.9509C20.3952 24.1344 22.8265 24.2766 25.255 24.2939C27.5045 24.3099 29.7575 24.1719 32.0051 24.0397C35.1286 23.856 38.2497 23.6366 41.3684 23.3816C42.2767 23.3271 43.1719 23.1407 44.0249 22.8286C44.8477 22.426 45.6332 21.9533 46.3723 21.4158L46.3456 21.2195C45.5726 21.4752 44.7996 21.7309 44.0266 21.9865C43.9738 21.8671 43.921 21.7477 43.8682 21.6283C44.3893 21.3126 44.9246 21.0167 45.4253 20.6721C45.6766 20.5422 45.8683 20.3228 45.9615 20.0587C45.9074 19.5443 45.8068 19.0358 45.6608 18.5391C44.9042 18.8066 44.2263 19.0462 43.5484 19.2858L43.3485 18.9224L45.4748 17.4258C44.6689 17.4358 44.1687 18.3355 43.2064 18.0225C43.6926 16.9208 45.4866 16.8967 45.2593 15.4931C44.4046 15.7899 43.6103 16.128 42.7827 16.3401C41.0908 16.7736 39.3918 17.1964 37.675 17.5149C36.3353 17.7634 34.965 17.8548 33.6068 18.0028C32.2813 18.1472 30.9562 18.355 29.6268 18.3909C27.6535 18.4443 25.6764 18.3852 23.7015 18.3457C22.5817 18.3233 21.4618 18.2618 20.3441 18.1876C18.1359 18.0409 15.9197 17.9505 13.7243 17.6924C11.5153 17.4326 9.32157 17.0287 7.13348 16.6232C6.27922 16.4178 5.43752 16.1647 4.61247 15.8651C4.4221 16.5112 4.55046 16.8562 5.1403 17.056C5.59862 17.2402 6.04466 17.4527 6.47575 17.6923L6.34253 18.0718C5.73065 18.0007 5.11877 17.9295 4.50688 17.8583C4.86603 18.1096 5.28049 18.2177 5.61175 18.4441C5.75945 18.6434 5.85554 18.8752 5.89165 19.1194C5.68507 19.1824 5.47068 19.217 5.25452 19.2222C4.87979 19.1658 4.50821 19.0906 4.14125 18.9969L4.07168 19.2149C4.60663 19.5064 5.14157 19.798 5.67651 20.0895L5.52958 20.447C4.94311 20.4172 4.35662 20.3875 3.64772 20.3516ZM39.5413 6.29799C39.7391 5.96556 39.9171 5.62211 40.0745 5.26938C40.3403 4.658 40.5339 4.01854 40.6514 3.36358C40.7055 3.0149 40.6359 2.65853 40.4544 2.35449C40.273 2.05045 39.9907 1.81733 39.6552 1.6944C39.2972 1.52769 38.8998 1.46025 38.5058 1.49933C38.1118 1.53841 37.7361 1.68252 37.4189 1.91619C36.8175 2.35291 36.3232 2.91706 35.9725 3.56705C35.6217 4.21704 35.4235 4.93632 35.3924 5.67184C35.3993 5.94231 35.313 6.20711 35.1477 6.42309C34.9823 6.63908 34.7476 6.79352 34.4818 6.86124C33.1296 7.29951 31.7756 7.73371 30.4351 8.20467C26.1526 9.70925 21.8696 11.2133 17.604 12.7635C17.3603 12.8618 17.0955 12.8986 16.8337 12.8707C16.5719 12.8428 16.3212 12.751 16.1045 12.6036C15.2705 12.1359 14.3843 11.7649 13.4637 11.4981C12.9814 11.34 12.4588 11.3491 11.9825 11.5238C11.5061 11.6986 11.1047 12.0284 10.8447 12.4587C10.3927 13.2602 10.575 13.9766 11.4801 14.9563C12.2946 15.8377 12.2946 15.8377 12.1513 16.8963C13.0693 17.0512 13.9988 17.1299 14.9302 17.1316C16.3752 17.0254 17.9614 18.0074 19.2628 16.6497C19.3392 16.5999 19.4268 16.5692 19.5181 16.5601C21.6498 15.9937 23.8029 15.4942 25.9082 14.8447C28.1329 14.1583 30.3329 13.3816 32.5042 12.5446C34.0508 11.9485 35.5222 11.165 37.0525 10.5236C37.371 10.4735 37.6969 10.5442 37.9647 10.7214C38.8037 11.1749 39.5569 11.8832 40.4464 12.1256C42.5561 12.7005 44.7979 10.4813 44.159 8.46688C43.8252 7.63038 43.3284 6.86638 42.6966 6.21801C42.1649 5.60458 41.4708 5.36768 40.7164 6.05971C40.5179 6.24176 40.1029 6.1946 39.5413 6.29799ZM47.4796 21.5396C47.6445 22.4315 47.0518 22.7311 46.3705 22.9223C45.2361 23.2408 44.1077 23.6059 42.9515 23.8166C41.5222 24.0772 40.0714 24.2479 38.6224 24.3728C35.4214 24.6488 32.2188 24.9324 29.0107 25.0944C26.9803 25.197 24.9377 25.1228 22.9028 25.061C20.6893 24.9937 18.469 24.9371 16.2685 24.7145C13.7669 24.4615 11.267 24.1166 8.79807 23.6489C6.75159 23.2613 4.74955 22.6434 2.73441 22.1035C2.66401 22.0542 2.60503 21.9908 2.56135 21.9173C2.51767 21.8439 2.4903 21.7622 2.48102 21.6776C2.44075 21.32 2.42048 20.9606 2.42031 20.6008C2.15161 20.765 1.89812 20.9522 1.6628 21.1602C0.925566 21.9742 0.948475 22.9622 1.0175 23.9698C1.00747 24.2435 1.103 24.5108 1.28487 24.7179C1.46673 24.9251 1.72145 25.0566 1.99778 25.0862C2.82836 25.2549 3.66957 25.3679 4.51564 25.4245C6.72605 25.5025 8.94037 25.4757 11.1505 25.5582C14.1255 25.6693 17.0966 25.8912 20.072 25.9791C23.9868 26.0949 27.9051 26.2127 31.8201 26.169C35.3183 26.1299 38.8201 25.9495 42.3084 25.6814C44.2405 25.4928 46.1578 25.1781 48.0476 24.7395C49.5578 24.4211 50.3173 22.866 49.8042 21.3307C49.0995 21.3941 48.3801 21.4587 47.4796 21.5396ZM39.0088 16.6883C40.6376 16.1947 42.2013 15.8194 43.6701 15.2189C43.9365 15.0556 44.1631 14.8365 44.3338 14.577C44.5044 14.3176 44.6149 14.0242 44.6573 13.7179C44.7378 13.0284 44.0074 12.7592 43.3745 12.7202C43.0416 12.6996 42.6983 12.9611 42.3542 12.9764C40.6775 13.0508 39.0815 12.809 37.7052 11.7388C37.6009 11.6678 37.4824 11.6197 37.3576 11.5976C37.2327 11.5755 37.1046 11.58 36.9817 11.6108C36.4143 11.8101 35.8792 12.0988 35.2664 12.3821C35.9323 12.5405 36.4884 12.6883 37.0515 12.8025C37.6147 12.9166 38.1958 12.9565 38.7498 13.1008C40.0362 13.4359 40.4193 14.4389 39.7125 15.5046C39.4823 15.8517 39.2855 16.2203 39.0088 16.6883ZM6.76901 15.5352C7.23539 14.5035 7.94025 13.9561 9.07212 14.0362C9.64135 14.0765 9.73663 13.7249 9.75884 13.2215C9.7836 12.6613 9.56347 12.3712 9.04999 12.4639C8.06776 12.5938 7.10396 12.8345 6.17758 13.1815C5.63195 13.4177 4.93251 14.0502 4.90445 14.5384C4.85823 15.3419 5.80032 15.3208 6.44 15.4533C6.52534 15.471 6.60927 15.4952 6.76901 15.5352Z" fill="black"/>
</svg>
