<svg width="124" height="4" viewBox="0 0 124 4" fill="none" xmlns="http://www.w3.org/2000/svg">
<path d="M123.291 0.0105392C123.252 0.0906567 123.121 0.263544 123.037 0.316253C122.964 0.362637 122.832 0.295178 122.737 0.324695C122.651 0.352104 122.601 0.571373 122.508 0.588239C122.416 0.605106 122.307 0.577698 122.219 0.588239C122.116 0.60089 122.017 0.577698 121.938 0.588239C121.843 0.60089 121.721 0.406911 121.627 0.419561C121.532 0.432211 121.469 0.708417 121.375 0.721067C121.281 0.733717 121.152 0.474377 121.058 0.484919C120.964 0.495461 120.884 0.634617 120.789 0.647267C120.695 0.659917 120.598 0.666245 120.504 0.676787C120.409 0.687329 120.332 0.86021 120.237 0.870752C120.143 0.881294 120.04 0.822261 119.943 0.832803C119.847 0.843345 119.74 0.729493 119.645 0.740035C119.551 0.750577 119.452 0.727383 119.358 0.737924C119.263 0.748466 119.181 0.908709 119.087 0.917142C118.993 0.925576 118.904 1.00991 118.808 1.01834C118.711 1.02677 118.602 0.872858 118.508 0.881291C118.413 0.889724 118.321 0.946658 118.226 0.955091C118.132 0.963525 118.042 1.04363 117.947 1.05207C117.853 1.0605 117.737 0.822257 117.641 0.828582C117.544 0.834907 117.467 1.0352 117.37 1.04153C117.273 1.04785 117.177 1.02467 117.082 1.0331C116.988 1.04153 116.893 1.06261 116.797 1.06894C116.7 1.07526 116.604 1.05419 116.509 1.06262C116.415 1.07105 116.325 1.17646 116.23 1.18278C116.136 1.18911 116.037 1.1596 115.94 1.16593C115.844 1.17225 115.749 1.16592 115.653 1.17013C115.556 1.17435 115.464 1.21442 115.367 1.22075C115.271 1.22707 115.172 1.16381 115.076 1.17013C114.979 1.17646 114.891 1.27345 114.794 1.27977C114.698 1.2861 114.589 1.03942 114.492 1.04364C114.396 1.04786 114.314 1.27345 114.217 1.27977C114.121 1.2861 114.024 1.26291 113.93 1.26712C113.835 1.27134 113.736 1.25658 113.642 1.2629C113.548 1.26923 113.449 1.25448 113.354 1.25869C113.26 1.26291 113.161 1.2355 113.067 1.23971C112.972 1.24393 112.878 1.31351 112.783 1.31983C112.689 1.32616 112.592 1.31983 112.496 1.32194C112.399 1.32405 112.303 1.28189 112.206 1.2861C112.11 1.29032 112.013 1.26291 111.919 1.26712C111.824 1.27134 111.734 1.42525 111.637 1.42947C111.541 1.43369 111.448 1.47374 111.352 1.47796C111.255 1.48218 111.161 1.49061 111.064 1.49483C110.968 1.49905 110.871 1.48007 110.777 1.48429C110.682 1.48851 110.579 1.35779 110.483 1.362C110.386 1.36622 110.294 1.4379 110.197 1.44001C110.101 1.44212 110.002 1.3599 109.906 1.36411C109.809 1.36833 109.721 1.55386 109.624 1.55597C109.528 1.55808 109.427 1.42525 109.33 1.42947C109.234 1.43369 109.135 1.3346 109.039 1.33881C108.942 1.34303 108.854 1.51169 108.757 1.5138C108.661 1.51591 108.566 1.51802 108.47 1.52224C108.373 1.52646 108.279 1.54753 108.182 1.55175C108.086 1.55596 107.991 1.60025 107.897 1.60236C107.802 1.60447 107.702 1.53488 107.607 1.5391C107.513 1.54331 107.418 1.59814 107.322 1.60025C107.225 1.60236 107.126 1.49904 107.03 1.50326C106.933 1.50748 106.839 1.53699 106.744 1.54121C106.65 1.54542 106.551 1.52856 106.457 1.53278C106.362 1.537 106.266 1.55597 106.169 1.55808C106.073 1.56019 105.974 1.44633 105.878 1.45055C105.781 1.45477 105.686 1.4885 105.592 1.49272C105.498 1.49694 105.407 1.65506 105.311 1.65927C105.214 1.66349 105.113 1.52645 105.019 1.52856C104.925 1.53067 104.83 1.60657 104.736 1.60868C104.641 1.61078 104.54 1.53488 104.446 1.5391C104.351 1.54331 104.261 1.71621 104.167 1.71831C104.072 1.72042 103.969 1.5897 103.875 1.59181C103.781 1.59391 103.684 1.59181 103.587 1.59603C103.491 1.60024 103.396 1.62555 103.302 1.62977C103.207 1.63398 103.109 1.60024 103.014 1.60446C102.92 1.60867 102.828 1.70566 102.731 1.70987C102.634 1.71409 102.536 1.62344 102.441 1.62766C102.347 1.63187 102.259 1.80265 102.164 1.80686C102.07 1.81108 101.965 1.61711 101.87 1.62133C101.776 1.62554 101.681 1.68036 101.587 1.68457C101.493 1.68879 101.392 1.615 101.297 1.61922C101.203 1.62343 101.111 1.68247 101.014 1.68668C100.917 1.6909 100.827 1.76892 100.733 1.77313C100.638 1.77735 100.548 1.89119 100.451 1.89541C100.355 1.89963 100.258 1.86589 100.164 1.87011C100.069 1.87433 99.9686 1.78157 99.8742 1.78578C99.7797 1.79 99.6789 1.68247 99.5824 1.68668C99.4858 1.6909 99.3956 1.75627 99.299 1.76048C99.2025 1.7647 99.1164 1.95655 99.0219 1.96077C98.9275 1.96498 98.8309 1.95235 98.7365 1.95867C98.642 1.965 98.537 1.7647 98.4405 1.76891C98.3439 1.77313 98.2621 2.03035 98.1655 2.03457C98.069 2.03878 97.9661 1.83848 97.8716 1.8427C97.7772 1.84692 97.6827 1.90595 97.5883 1.91017C97.4938 1.91439 97.3952 1.84904 97.2986 1.85325C97.202 1.85747 97.1118 1.94601 97.0173 1.95023C96.9229 1.95445 96.8326 2.06619 96.736 2.07041C96.6395 2.07462 96.545 2.06197 96.4506 2.06619C96.3561 2.0704 96.2512 1.87434 96.1567 1.87855C96.0622 1.88277 95.9762 2.09571 95.8796 2.09993C95.7831 2.10414 95.6865 2.05143 95.592 2.05565C95.4976 2.05986 95.3968 1.96288 95.3024 1.9671C95.2079 1.97132 95.1135 1.9924 95.0169 1.99662C94.9203 2.00084 94.8238 1.91649 94.7272 1.92071C94.6307 1.92493 94.5383 1.9439 94.4417 1.94812C94.3452 1.95234 94.2507 1.9439 94.1563 1.94812C94.0618 1.95234 93.9757 2.18215 93.8792 2.18636C93.7826 2.19058 93.6861 2.12523 93.5916 2.12945C93.4972 2.13366 93.3943 1.97975 93.2998 1.98397C93.2054 1.98819 93.1109 2.00294 93.0144 2.00716C92.9178 2.01138 92.8276 2.08095 92.731 2.08517C92.6344 2.08938 92.5442 2.16318 92.4476 2.1674C92.3511 2.17161 92.2566 2.17794 92.1621 2.18216C92.0677 2.18637 91.9669 2.09149 91.8725 2.09571C91.778 2.09992 91.6878 2.2686 91.5933 2.27281C91.4988 2.27703 91.3939 2.07462 91.2994 2.07884C91.205 2.08305 91.1147 2.21166 91.0182 2.21377C90.9216 2.21588 90.8271 2.23065 90.7327 2.23486C90.6382 2.23908 90.5459 2.35925 90.4514 2.36136C90.3569 2.36347 90.2541 2.18426 90.1596 2.18847C90.0652 2.19269 89.9707 2.2433 89.8763 2.24751C89.7818 2.25173 89.6831 2.20535 89.5887 2.20745C89.4942 2.20956 89.3977 2.18848 89.3011 2.19269C89.2046 2.19691 89.1122 2.21378 89.0156 2.21799C88.9191 2.22221 88.8225 2.1695 88.7281 2.17371C88.6336 2.17793 88.5391 2.20746 88.4426 2.20957C88.346 2.21167 88.2579 2.3972 88.1634 2.40142C88.069 2.40564 87.964 2.17372 87.8695 2.17793C87.7751 2.18215 87.689 2.43726 87.5925 2.43937C87.4959 2.44148 87.4014 2.4225 87.3049 2.42461C87.2083 2.42672 87.1097 2.27491 87.0131 2.27913C86.9166 2.28335 86.8305 2.4984 86.7339 2.50262C86.6374 2.50683 86.5387 2.37401 86.4443 2.37612C86.3498 2.37823 86.2512 2.31077 86.1567 2.31498C86.0622 2.3192 85.9636 2.26226 85.8691 2.26437C85.7747 2.26648 85.6844 2.46678 85.5899 2.46889C85.4955 2.471 85.401 2.54268 85.3066 2.54479C85.2121 2.5469 85.1093 2.3466 85.0148 2.35082C84.9203 2.35504 84.8259 2.38244 84.7293 2.38455C84.6328 2.38666 84.5404 2.42039 84.4438 2.4225C84.3473 2.42461 84.2549 2.50684 84.1605 2.51106C84.066 2.51528 83.9674 2.42461 83.8708 2.42672C83.7742 2.42883 83.6819 2.51316 83.5874 2.51738C83.493 2.52159 83.3985 2.5975 83.304 2.59961C83.2096 2.60171 83.1046 2.34238 83.0102 2.34449C82.9157 2.3466 82.8192 2.35083 82.7247 2.35504C82.6302 2.35926 82.5337 2.35503 82.4392 2.35714C82.3448 2.35925 82.2545 2.54479 82.1601 2.5469C82.0656 2.54901 81.969 2.56376 81.8746 2.56798C81.7801 2.57219 81.6836 2.56376 81.5891 2.56798C81.4946 2.57219 81.396 2.4731 81.2994 2.47732C81.2029 2.48153 81.1126 2.63334 81.0182 2.63755C80.9237 2.64177 80.8229 2.45835 80.7264 2.46046C80.6298 2.46257 80.5417 2.67128 80.4472 2.67339C80.3527 2.6755 80.252 2.55744 80.1575 2.55955C80.0631 2.56166 79.9686 2.65232 79.8742 2.65654C79.7797 2.66075 79.6789 2.50051 79.5845 2.50262C79.49 2.50473 79.3956 2.54057 79.299 2.54268C79.2025 2.54478 79.1122 2.69238 79.0177 2.69448C78.9233 2.69659 78.8246 2.60172 78.7281 2.60383C78.6315 2.60594 78.5349 2.52792 78.4405 2.53003C78.346 2.53214 78.2537 2.69027 78.1592 2.69237C78.0648 2.69448 77.9661 2.61647 77.8716 2.62068C77.7772 2.6249 77.6848 2.7514 77.5904 2.75351C77.4959 2.75562 77.393 2.52792 77.2986 2.53214C77.2041 2.53635 77.1118 2.66497 77.0173 2.66707C76.9229 2.66918 76.8263 2.68183 76.7318 2.68604C76.6374 2.69026 76.5408 2.69869 76.4464 2.7008C76.3519 2.70291 76.2575 2.7472 76.1609 2.7493C76.0643 2.75141 75.972 2.82309 75.8775 2.8252C75.7831 2.82731 75.6823 2.63123 75.5857 2.63544C75.4892 2.63966 75.3989 2.78514 75.3045 2.78725C75.21 2.78936 75.1092 2.58274 75.0127 2.58485C74.9161 2.58695 74.8217 2.58907 74.7272 2.59118C74.6328 2.59329 74.5362 2.58063 74.4417 2.58274C74.3473 2.58484 74.257 2.79146 74.1605 2.79357C74.0639 2.79568 73.9674 2.7008 73.8729 2.70291C73.7784 2.70502 73.6819 2.65652 73.5853 2.65863C73.4888 2.66074 73.4006 2.87791 73.3041 2.88002C73.2075 2.88213 73.1109 2.81887 73.0165 2.82098C72.922 2.82309 72.8213 2.66286 72.7268 2.66496C72.6323 2.66707 72.5358 2.68605 72.4413 2.69026C72.3469 2.69448 72.2524 2.73664 72.1559 2.73875C72.0593 2.74086 71.9648 2.70923 71.8683 2.71134C71.7717 2.71345 71.6773 2.67762 71.5807 2.67972C71.4841 2.68183 71.396 2.91375 71.2994 2.91586C71.2029 2.91797 71.1042 2.7008 71.0077 2.70291C70.9111 2.70502 70.8208 2.84417 70.7243 2.84628C70.6277 2.84839 70.5291 2.67973 70.4346 2.68183C70.3401 2.68394 70.2499 2.96435 70.1554 2.96646C70.061 2.96857 69.9602 2.76194 69.8637 2.76405C69.7671 2.76616 69.6726 2.70923 69.5761 2.71134C69.4795 2.71345 69.3893 2.88845 69.2948 2.89056C69.2003 2.89267 69.1017 2.77038 69.0051 2.77249C68.9086 2.7746 68.8204 2.99387 68.7239 2.99598C68.6273 2.99809 68.5328 3.01074 68.4384 3.01285C68.3439 3.01496 68.2453 2.8758 68.1487 2.87791C68.0522 2.88002 67.9619 3.01074 67.8653 3.01285C67.7688 3.01496 67.6743 2.98333 67.5778 2.98544C67.4812 2.98755 67.3867 2.94116 67.2902 2.94327C67.1936 2.94538 67.1013 3.04236 67.0068 3.04447C66.9124 3.04657 66.8116 2.78935 66.715 2.79146C66.6185 2.79357 66.5303 3.05923 66.4338 3.06134C66.3372 3.06344 66.2407 2.91164 66.1441 2.91375C66.0475 2.91586 65.951 2.83574 65.8565 2.83785C65.7621 2.83996 65.6655 2.79357 65.5689 2.79568C65.4724 2.79779 65.3821 2.97911 65.2877 2.98122C65.1932 2.98333 65.0925 2.80622 64.998 2.80833C64.9035 2.81044 64.8091 2.86315 64.7125 2.86315C64.616 2.86315 64.5236 2.9264 64.427 2.92851C64.3305 2.93062 64.236 2.88423 64.1395 2.88634C64.0429 2.88845 63.9527 3.11194 63.8582 3.11405C63.7637 3.11615 63.663 2.89899 63.5685 2.9011C63.4741 2.90321 63.3796 2.98544 63.2852 2.98755C63.1907 2.98966 63.0962 3.1014 63.0018 3.10351C62.9073 3.10561 62.8066 2.87791 62.7121 2.88002C62.6176 2.88213 62.5211 2.90953 62.4266 2.91164C62.3322 2.91375 62.2398 3.1267 62.1454 3.12881C62.0509 3.13091 61.9522 3.0529 61.8578 3.05501C61.7633 3.05711 61.6668 2.99598 61.5702 2.99598C61.4737 2.99598 61.3792 2.94116 61.2826 2.94327C61.1861 2.94538 61.0958 3.1267 60.9993 3.12881C60.9027 3.13091 60.8082 3.08453 60.7117 3.08453C60.6151 3.08453 60.5228 3.14145 60.4262 3.14145C60.3297 3.14145 60.2352 3.08664 60.1386 3.08875C60.0421 3.09085 59.9455 2.9011 59.849 2.90321C59.7524 2.90532 59.6643 3.19628 59.5677 3.19838C59.4711 3.20049 59.3725 2.9517 59.278 2.95381C59.1836 2.95592 59.087 2.9517 58.9925 2.95381C58.8981 2.95592 58.8015 2.93694 58.7071 2.93905C58.6126 2.94116 58.5182 3.04869 58.4237 3.04869C58.3292 3.04869 58.2348 3.20048 58.1403 3.20048C58.0459 3.20048 57.9451 2.9517 57.8507 2.95381C57.7562 2.95592 57.6638 3.21524 57.5694 3.21735C57.4749 3.21946 57.3784 3.2047 57.2839 3.20681C57.1894 3.20892 57.0929 3.22578 56.9984 3.22578C56.904 3.22578 56.8053 3.09086 56.7108 3.09297C56.6164 3.09508 56.5219 3.23423 56.4275 3.23633C56.333 3.23844 56.2344 3.07188 56.1378 3.07399C56.0412 3.07609 55.9447 2.97278 55.8502 2.97489C55.7558 2.97699 55.6634 3.26584 55.5689 3.26795C55.4745 3.27006 55.3758 3.1309 55.2814 3.13301C55.1869 3.13512 55.0925 3.22789 54.9959 3.23C54.8993 3.23211 54.8049 3.16676 54.7083 3.16886C54.6118 3.17097 54.5173 3.15831 54.4229 3.16042C54.3284 3.16253 54.2318 3.14566 54.1374 3.14777C54.0429 3.14988 53.9464 3.08875 53.8498 3.08875C53.7532 3.08875 53.663 3.2806 53.5664 3.28271C53.4699 3.28482 53.3733 3.09718 53.2768 3.09929C53.1802 3.10139 53.0878 3.25741 52.9934 3.25741C52.8989 3.25741 52.8003 3.16254 52.7058 3.16464C52.6113 3.16675 52.5148 3.14357 52.4203 3.14357C52.3259 3.14357 52.2314 3.3059 52.137 3.3059C52.0425 3.3059 51.9438 3.18151 51.8494 3.18151C51.7549 3.18151 51.6584 3.10983 51.5618 3.11193C51.4653 3.11404 51.375 3.32699 51.2784 3.32699C51.1819 3.32699 51.0874 3.24899 50.9909 3.25109C50.8943 3.2532 50.7977 3.08875 50.7033 3.08875C50.6088 3.08875 50.5123 3.0508 50.4157 3.0508C50.3192 3.0508 50.2289 3.28693 50.1323 3.28693C50.0358 3.28693 49.9413 3.28693 49.8469 3.28904C49.7524 3.29115 49.6537 3.12881 49.5593 3.12881C49.4648 3.12881 49.3704 3.22367 49.2738 3.22578C49.1773 3.22789 49.0828 3.15411 48.9862 3.15621C48.8897 3.15832 48.7952 3.13935 48.7008 3.14145C48.6063 3.14356 48.5119 3.32488 48.4174 3.32699C48.3229 3.3291 48.2243 3.22158 48.1298 3.22368C48.0354 3.22579 47.9409 3.37337 47.8464 3.37548C47.752 3.37759 47.6533 3.26584 47.5589 3.26795C47.4644 3.27006 47.3658 3.11616 47.2713 3.11616C47.1768 3.11616 47.0824 3.28693 46.9879 3.28904C46.8935 3.29115 46.7969 3.30379 46.7024 3.3059C46.608 3.30801 46.5135 3.40078 46.417 3.40289C46.3204 3.405 46.2239 3.28903 46.1294 3.29114C46.0349 3.29325 45.9384 3.27638 45.8439 3.27849C45.7495 3.2806 45.6508 3.14777 45.5564 3.14777C45.4619 3.14777 45.3695 3.41132 45.273 3.41132C45.1764 3.41132 45.082 3.34807 44.9854 3.35018C44.8888 3.35229 44.7944 3.26795 44.6978 3.27006C44.6013 3.27217 44.5047 3.13512 44.4103 3.13512C44.3158 3.13512 44.2234 3.41554 44.129 3.41765C44.0345 3.41976 43.9359 3.29536 43.8414 3.29747C43.7469 3.29958 43.6483 3.18572 43.5538 3.18783C43.4594 3.18994 43.367 3.44295 43.2705 3.44506C43.1739 3.44717 43.0773 3.27428 42.9829 3.27639C42.8884 3.2785 42.7919 3.17097 42.6953 3.17097C42.5988 3.17097 42.5064 3.34596 42.4119 3.34596C42.3175 3.34596 42.2209 3.25741 42.1244 3.25952C42.0278 3.26163 41.9354 3.41976 41.841 3.41976C41.7465 3.41976 41.65 3.36705 41.5534 3.36916C41.4569 3.37127 41.3624 3.27006 41.2658 3.27217C41.1693 3.27428 41.0769 3.33964 40.9804 3.33964C40.8838 3.33964 40.7893 3.29958 40.6949 3.30169C40.6004 3.3038 40.5039 3.27217 40.4094 3.27428C40.315 3.27639 40.2205 3.42819 40.126 3.42819C40.0316 3.42819 39.935 3.35861 39.8385 3.36072C39.7419 3.36283 39.6475 3.30169 39.5509 3.3038C39.4543 3.30591 39.3599 3.28904 39.2654 3.28904C39.171 3.28904 39.0744 3.27428 38.9799 3.27639C38.8855 3.2785 38.791 3.4303 38.6966 3.4303C38.6021 3.4303 38.5056 3.35651 38.409 3.35651C38.3124 3.35651 38.218 3.32699 38.1235 3.32699C38.0291 3.32699 37.9325 3.31012 37.838 3.31012C37.7436 3.31012 37.6491 3.47879 37.5547 3.47879C37.4602 3.47879 37.3616 3.27639 37.2671 3.27639C37.1726 3.27639 37.0782 3.46192 36.9837 3.46403C36.8893 3.46613 36.7906 3.30169 36.6962 3.30169C36.6017 3.30169 36.5051 3.3312 36.4107 3.3312C36.3162 3.3312 36.2218 3.40289 36.1252 3.40289C36.0286 3.40289 35.9342 3.37126 35.8397 3.37337C35.7453 3.37548 35.6508 3.47668 35.5543 3.47879C35.4577 3.48089 35.3632 3.41554 35.2667 3.41765C35.1701 3.41976 35.0757 3.37548 34.9812 3.37548C34.8867 3.37548 34.7902 3.2806 34.6936 3.2806C34.5971 3.2806 34.5026 3.28271 34.4082 3.28482C34.3137 3.28693 34.2171 3.27217 34.1227 3.27428C34.0282 3.27639 33.9317 3.3291 33.8372 3.3291C33.7428 3.3291 33.6462 3.3291 33.5517 3.3291C33.4573 3.3291 33.3628 3.54415 33.2684 3.54415C33.1739 3.54415 33.0773 3.49355 32.9808 3.49566C32.8842 3.49777 32.7877 3.27006 32.6932 3.27217C32.5988 3.27428 32.5064 3.52307 32.4098 3.52518C32.3133 3.52729 32.2167 3.3818 32.1223 3.38391C32.0278 3.38602 31.9333 3.44716 31.8368 3.44927C31.7402 3.45137 31.6458 3.37337 31.5492 3.37548C31.4527 3.37759 31.3603 3.53783 31.2658 3.53783C31.1714 3.53783 31.0727 3.40921 30.9783 3.41132C30.8838 3.41343 30.7872 3.42608 30.6928 3.42608C30.5983 3.42608 30.5018 3.3565 30.4052 3.35861C30.3087 3.36072 30.2142 3.3059 30.1176 3.30801C30.0211 3.31012 29.9287 3.52729 29.8343 3.52729C29.7398 3.52729 29.6433 3.57367 29.5488 3.57367C29.4543 3.57367 29.3557 3.43241 29.2612 3.43452C29.1668 3.43663 29.0702 3.4556 28.9757 3.45771C28.8813 3.45982 28.7868 3.57999 28.6903 3.58209C28.5937 3.5842 28.4972 3.45138 28.4027 3.45138C28.3082 3.45138 28.2117 3.44717 28.1172 3.44717C28.0228 3.44717 27.9262 3.47036 27.8317 3.47247C27.7373 3.47458 27.6428 3.59474 27.5463 3.59474C27.4497 3.59474 27.3553 3.53783 27.2587 3.53994C27.1621 3.54205 27.0677 3.58421 26.9732 3.58631C26.8788 3.58842 26.7822 3.5062 26.6857 3.5062C26.5891 3.5062 26.4946 3.42187 26.3981 3.42187C26.3015 3.42187 26.2092 3.59474 26.1147 3.59474C26.0202 3.59474 25.9237 3.62216 25.8292 3.62426C25.7348 3.62637 25.6382 3.60108 25.5438 3.60319C25.4493 3.60529 25.3527 3.63902 25.2583 3.63902C25.1638 3.63902 25.0694 3.63902 24.9728 3.63902C24.8762 3.63902 24.7797 3.44927 24.6852 3.44927C24.5908 3.44927 24.4963 3.50409 24.4019 3.50409C24.3074 3.50409 24.215 3.63903 24.1185 3.64113C24.0219 3.64324 23.9233 3.38602 23.8288 3.38813C23.7344 3.39024 23.6441 3.6348 23.5475 3.63691C23.451 3.63902 23.3523 3.40711 23.2579 3.40711C23.1634 3.40711 23.071 3.53993 22.9745 3.54203C22.8779 3.54414 22.7835 3.49987 22.689 3.50198C22.5946 3.50408 22.4959 3.40921 22.4014 3.41132C22.307 3.41343 22.2125 3.42186 22.116 3.42397C22.0194 3.42608 21.9249 3.42397 21.8305 3.42608C21.736 3.42819 21.6437 3.57367 21.5492 3.57578C21.4548 3.57788 21.3582 3.49987 21.2616 3.50198C21.1651 3.50408 21.0769 3.67275 20.9804 3.67486C20.8838 3.67697 20.7894 3.59264 20.6928 3.59474C20.5962 3.59685 20.5018 3.55891 20.4073 3.56102C20.3129 3.56312 20.2205 3.7065 20.126 3.71071C20.0316 3.71493 19.935 3.63903 19.8385 3.64324C19.7419 3.64746 19.6454 3.55258 19.5509 3.55468C19.4564 3.55679 19.3599 3.49566 19.2633 3.49777C19.1668 3.49988 19.0744 3.55048 18.9799 3.55259C18.8855 3.5547 18.7889 3.5315 18.6945 3.53361C18.6 3.53571 18.5056 3.61584 18.4111 3.61795C18.3166 3.62005 18.2243 3.76763 18.1298 3.76974C18.0354 3.77185 17.9367 3.64956 17.8401 3.65167C17.7436 3.65378 17.6512 3.69385 17.5568 3.69595C17.4623 3.69806 17.3658 3.6327 17.2692 3.63691C17.1726 3.64113 17.0824 3.7845 16.9879 3.78872C16.8935 3.79294 16.7927 3.63692 16.6982 3.64113C16.6038 3.64535 16.5072 3.59475 16.4128 3.59685C16.3183 3.59896 16.2239 3.63692 16.1294 3.63902C16.0349 3.64113 15.9405 3.67066 15.8439 3.67276C15.7474 3.67487 15.6571 3.80137 15.5626 3.80348C15.4682 3.80559 15.3737 3.84564 15.2772 3.84986C15.1806 3.85408 15.0862 3.82878 14.9917 3.83089C14.8972 3.833 14.8007 3.85197 14.7062 3.85408C14.6118 3.85619 14.5152 3.86883 14.4208 3.87094C14.3263 3.87305 14.2297 3.89835 14.1353 3.90046C14.0408 3.90257 13.9401 3.69596 13.8456 3.69806C13.7511 3.70017 13.6588 3.88149 13.5643 3.8836C13.4699 3.88571 13.3712 3.76131 13.2768 3.76342C13.1823 3.76553 13.0878 3.88149 12.9934 3.8836C12.8989 3.88571 12.8024 3.92998 12.7079 3.93209C12.6134 3.9342 12.5148 3.74022 12.4182 3.74233C12.3217 3.74444 12.2293 3.88781 12.1349 3.88781C12.0404 3.88781 11.9438 3.84775 11.8473 3.84775C11.7507 3.84775 11.6542 3.70227 11.5597 3.70227C11.4653 3.70227 11.3708 3.84564 11.2763 3.84564C11.1819 3.84564 11.0853 3.83932 10.9909 3.83932C10.8964 3.83932 10.7998 3.85829 10.7054 3.85829C10.6109 3.85829 10.5144 3.96793 10.4199 3.96793C10.3255 3.96793 10.2289 3.77396 10.1323 3.77396C10.0358 3.77396 9.94132 3.95317 9.84686 3.95317C9.7524 3.95317 9.65585 3.78028 9.55929 3.78028C9.46273 3.78028 9.36827 3.88149 9.27381 3.88149C9.17935 3.88149 9.0828 3.96371 8.98834 3.96371C8.89388 3.96371 8.79733 3.78028 8.70287 3.78028C8.60841 3.78028 8.51185 3.86884 8.41739 3.86884C8.32293 3.86884 8.22638 3.96793 8.12982 3.96793C8.03326 3.96793 7.9409 3.80769 7.84434 3.80558C7.74778 3.80347 7.65543 3.72336 7.55887 3.72336C7.46231 3.72336 7.36786 3.80769 7.2713 3.80558C7.17474 3.80347 7.08028 3.82456 6.98582 3.82245C6.89136 3.82034 6.79691 3.74444 6.70035 3.74233C6.60379 3.74022 6.50513 3.93842 6.41067 3.93631C6.31622 3.9342 6.22596 3.68119 6.1294 3.67908C6.03284 3.67697 5.93838 3.72547 5.84183 3.72336C5.74527 3.72125 5.64871 3.833 5.55215 3.83089C5.4556 3.82878 5.36534 3.70438 5.27088 3.70227C5.17642 3.70016 5.08196 3.66643 4.9875 3.66221C4.89304 3.658 4.79858 3.62427 4.70202 3.62006C4.60547 3.61584 4.50891 3.7086 4.41236 3.70438C4.3158 3.70017 4.21924 3.76553 4.12478 3.76342C4.03032 3.76131 3.93376 3.76342 3.83931 3.75709C3.74485 3.75077 3.64409 3.833 3.54963 3.82878C3.45517 3.82456 3.36911 3.6074 3.27465 3.60319C3.1802 3.59897 3.07524 3.78451 2.97868 3.77818C2.88213 3.77186 2.79187 3.70439 2.69741 3.69806C2.60295 3.69174 2.51479 3.56523 2.42033 3.55891C2.32587 3.55258 2.22721 3.59264 2.13276 3.58631C2.0383 3.57999 1.93754 3.65589 1.84308 3.64956C1.74862 3.64324 1.66466 3.483 1.5702 3.47668C1.47575 3.47035 1.38339 3.43662 1.28893 3.4303C1.19447 3.42397 1.08322 3.63481 0.988763 3.62637C0.894305 3.61794 0.80194 3.58421 0.707481 3.57789C0.606725 3.56945 0.497579 3.63271 0.417814 3.62006C0.310761 3.60108 0.214202 3.52518 0.147031 3.49777C0.0168885 3.44506 -0.012497 3.29536 0.00429563 3.23C0.0168901 3.17308 0.0525739 3.02339 0.17432 2.97068C0.24359 2.94116 0.356937 2.9517 0.459792 2.92851C0.539557 2.90953 0.629817 2.86526 0.728473 2.8505C0.822932 2.83785 0.921587 2.86315 1.01605 2.8505C1.1105 2.83785 1.22596 2.99176 1.32041 2.97911C1.41487 2.96646 1.48624 2.78936 1.5807 2.77671C1.67516 2.76406 1.77172 2.78514 1.86618 2.7746C1.96063 2.76406 2.05929 2.79568 2.15375 2.78514C2.24821 2.7746 2.33217 2.6734 2.42663 2.66285C2.52108 2.65231 2.61554 2.65443 2.71 2.64389C2.80446 2.63334 2.89472 2.59117 2.98918 2.58274C3.08364 2.5743 3.19909 2.77459 3.29354 2.76405C3.388 2.75351 3.48036 2.73244 3.57482 2.724C3.66928 2.71557 3.74904 2.549 3.8435 2.54057C3.93796 2.53213 4.03662 2.5722 4.13107 2.56377C4.22553 2.55533 4.3137 2.48154 4.40815 2.47311C4.50261 2.46468 4.59078 2.36558 4.68523 2.35925C4.77969 2.35293 4.88045 2.43093 4.97491 2.4225C5.06937 2.41406 5.17432 2.54689 5.26878 2.54057C5.36323 2.53424 5.4514 2.42882 5.54586 2.4225C5.64031 2.41617 5.74107 2.48575 5.83553 2.47943C5.92999 2.4731 6.02864 2.52581 6.1231 2.51949C6.21756 2.51316 6.30572 2.40563 6.40018 2.39931C6.49464 2.39298 6.5807 2.24329 6.67516 2.23907C6.76962 2.23486 6.87247 2.37191 6.96693 2.36769C7.06139 2.36348 7.15795 2.38245 7.25241 2.37823C7.34687 2.37401 7.44762 2.46257 7.54207 2.45835C7.63653 2.45413 7.7184 2.20745 7.81496 2.20112C7.91152 2.1948 8.01017 2.31076 8.10463 2.30654C8.19909 2.30232 8.28725 2.15263 8.3817 2.14841C8.47616 2.1442 8.57273 2.18215 8.66928 2.17793C8.76584 2.17372 8.8624 2.24751 8.95686 2.24329C9.05131 2.23908 9.14787 2.25805 9.24233 2.25383C9.33679 2.24962 9.43544 2.32974 9.5299 2.32552C9.62436 2.32131 9.71252 2.13998 9.80698 2.13788C9.90144 2.13577 10.0043 2.31287 10.0988 2.30865C10.1932 2.30444 10.2877 2.28546 10.3821 2.28124C10.4766 2.27703 10.5689 2.19058 10.6634 2.18847C10.7579 2.18637 10.8481 2.06831 10.9447 2.06409C11.0412 2.05987 11.1399 2.16317 11.2344 2.15895C11.3288 2.15474 11.4191 2.03034 11.5156 2.02613C11.6122 2.02191 11.7108 2.14631 11.8053 2.1421C11.8998 2.13788 12.0005 2.28124 12.095 2.27702C12.1894 2.2728 12.2818 2.16739 12.3763 2.16317C12.4707 2.15896 12.5673 2.21167 12.6638 2.20957C12.7604 2.20746 12.8506 2.1442 12.9451 2.13999C13.0396 2.13577 13.1403 2.23275 13.2348 2.22853C13.3292 2.22432 13.4132 1.94813 13.5077 1.94391C13.6021 1.93969 13.705 2.13365 13.7994 2.13154C13.8939 2.12944 13.9799 1.9418 14.0765 1.93758C14.1731 1.93336 14.2675 1.96078 14.362 1.95656C14.4564 1.95234 14.553 1.99239 14.6474 1.98818C14.7419 1.98396 14.8322 1.91861 14.9266 1.91439C15.0211 1.91017 15.1218 1.98608 15.2163 1.98186C15.3108 1.97764 15.4073 1.97974 15.5018 1.97342C15.5962 1.96709 15.6865 1.84693 15.783 1.8406C15.8796 1.83428 15.9783 1.92072 16.0727 1.91439C16.1672 1.90807 16.2679 2.03245 16.3645 2.02824C16.4611 2.02402 16.5555 2.05354 16.6521 2.04933C16.7486 2.04511 16.8326 1.79843 16.927 1.79421C17.0215 1.79 17.1181 1.77946 17.2125 1.77524C17.307 1.77103 17.4098 1.9165 17.5043 1.91228C17.5988 1.90806 17.6911 1.80476 17.7856 1.80054C17.88 1.79633 17.9808 1.91228 18.0773 1.90806C18.1739 1.90384 18.2705 1.98397 18.367 1.97975C18.4636 1.97553 18.5538 1.8912 18.6504 1.88698C18.7469 1.88276 18.8372 1.79632 18.9338 1.7921C19.0303 1.78789 19.1227 1.75205 19.2192 1.74783C19.3158 1.74362 19.4103 1.7668 19.5068 1.76258C19.6034 1.75837 19.7041 1.91861 19.7986 1.9165C19.893 1.91439 19.9875 1.85114 20.082 1.84692C20.1764 1.8427 20.2751 1.91228 20.3695 1.90806C20.464 1.90384 20.5501 1.62977 20.6445 1.62766C20.739 1.62555 20.8418 1.78789 20.9363 1.78367C21.0307 1.77946 21.1273 1.7668 21.2218 1.76469C21.3162 1.76258 21.4086 1.62343 21.503 1.62133C21.5975 1.61922 21.7024 1.85536 21.7969 1.85114C21.8914 1.84693 21.9816 1.69301 22.0782 1.68879C22.1747 1.68458 22.2713 1.75837 22.3658 1.75415C22.4602 1.74994 22.5526 1.6403 22.6491 1.63609C22.7457 1.63187 22.8422 1.70988 22.9367 1.70567C23.0312 1.70145 23.1256 1.62766 23.2201 1.62555C23.3145 1.62344 23.409 1.54754 23.5035 1.54543C23.5979 1.54332 23.6966 1.65084 23.7931 1.64663C23.8897 1.64241 23.982 1.56019 24.0765 1.55808C24.171 1.55597 24.2696 1.62554 24.3641 1.62344C24.4585 1.62133 24.5572 1.73307 24.6537 1.73096C24.7503 1.72886 24.8427 1.66138 24.9371 1.65927C25.0316 1.65717 25.1302 1.73729 25.2247 1.73307C25.3192 1.72886 25.4136 1.69723 25.5102 1.69513C25.6067 1.69302 25.6949 1.50748 25.7914 1.50537C25.888 1.50326 25.9867 1.69723 26.0832 1.69302C26.1798 1.6888 26.27 1.5623 26.3666 1.56019C26.4632 1.55808 26.5555 1.52435 26.6521 1.52224C26.7486 1.52013 26.8431 1.49061 26.9375 1.4885C27.032 1.48639 27.1286 1.49272 27.223 1.49061C27.3175 1.4885 27.414 1.47375 27.5085 1.47164C27.603 1.46953 27.6974 1.40628 27.794 1.40417C27.8905 1.40206 27.9892 1.56019 28.0836 1.55808C28.1781 1.55597 28.2705 1.41049 28.367 1.40838C28.4636 1.40627 28.5622 1.63608 28.6588 1.63398C28.7553 1.63187 28.8456 1.4885 28.9422 1.48639C29.0387 1.48428 29.1332 1.51591 29.2297 1.5138C29.3263 1.51169 29.4187 1.45055 29.5152 1.44844C29.6118 1.44633 29.7083 1.55597 29.8028 1.55386C29.8972 1.55175 29.9917 1.44001 30.0862 1.4379C30.1806 1.43579 30.2751 1.37254 30.3716 1.37043C30.4682 1.36832 30.5626 1.39363 30.6592 1.39152C30.7558 1.38941 30.8544 1.57284 30.9489 1.57073C31.0433 1.56862 31.1378 1.43369 31.2323 1.43158C31.3267 1.42947 31.4212 1.32194 31.5156 1.31983C31.6101 1.31772 31.7066 1.34302 31.8032 1.34091C31.8998 1.3388 31.9942 1.39995 32.0908 1.39784C32.1873 1.39573 32.2839 1.54543 32.3804 1.54332C32.477 1.54121 32.5694 1.44634 32.6638 1.44423C32.7583 1.44212 32.8548 1.49905 32.9514 1.49694C33.048 1.49483 33.1424 1.46531 33.2369 1.4632C33.3313 1.46109 33.4258 1.32194 33.5202 1.31983C33.6147 1.31772 33.7155 1.54754 33.8099 1.54754C33.9044 1.54754 33.9967 1.35989 34.0933 1.35778C34.1899 1.35567 34.2864 1.55808 34.383 1.55597C34.4795 1.55386 34.5719 1.41049 34.6663 1.41049C34.7608 1.41049 34.8574 1.45899 34.9539 1.45899C35.0505 1.45899 35.1428 1.33459 35.2373 1.33459C35.3317 1.33459 35.4283 1.35989 35.5228 1.35778C35.6172 1.35567 35.7159 1.51591 35.8103 1.5138C35.9048 1.51169 35.9972 1.2608 36.0937 1.25869C36.1903 1.25659 36.2847 1.29242 36.3813 1.29242C36.4778 1.29242 36.5723 1.25447 36.6668 1.25236C36.7612 1.25026 36.8599 1.36833 36.9543 1.36622C37.0488 1.36411 37.1433 1.26501 37.2398 1.2629C37.3364 1.26079 37.4329 1.45899 37.5274 1.45899C37.6218 1.45899 37.7184 1.43368 37.8129 1.43368C37.9073 1.43368 38.0039 1.40206 38.0983 1.40206C38.1928 1.40206 38.2894 1.43368 38.3838 1.43368C38.4783 1.43368 38.5727 1.33037 38.6693 1.33037C38.7658 1.33037 38.8582 1.25026 38.9548 1.24816C39.0513 1.24605 39.1479 1.38519 39.2423 1.38308C39.3368 1.38097 39.4312 1.25236 39.5278 1.25236C39.6244 1.25236 39.7209 1.42736 39.8154 1.42736C39.9098 1.42736 40.0043 1.29875 40.1009 1.29875C40.1974 1.29875 40.294 1.4885 40.3884 1.48639C40.4829 1.48428 40.5773 1.29453 40.6718 1.29453C40.7663 1.29453 40.8628 1.2102 40.9573 1.2081C41.0517 1.20599 41.1483 1.30718 41.2449 1.30718C41.3414 1.30718 41.4359 1.40628 41.5324 1.40417C41.629 1.40206 41.7213 1.18069 41.8158 1.18069C41.9103 1.18069 42.0068 1.21019 42.1013 1.21019C42.1957 1.21019 42.2923 1.29453 42.3888 1.29453C42.4854 1.29453 42.5799 1.35567 42.6764 1.35567C42.773 1.35567 42.8674 1.45055 42.964 1.45055C43.0605 1.45055 43.1529 1.24605 43.2495 1.24605C43.346 1.24605 43.4405 1.20177 43.5349 1.20177C43.6294 1.20177 43.726 1.17858 43.8204 1.17858C43.9149 1.17858 44.0114 1.362 44.108 1.362C44.2045 1.362 44.299 1.25658 44.3935 1.25658C44.4879 1.25658 44.5845 1.41049 44.681 1.41049C44.7776 1.41049 44.8721 1.37465 44.9665 1.37254C45.061 1.37043 45.1575 1.32616 45.252 1.32616C45.3464 1.32616 45.443 1.40417 45.5375 1.40417C45.6319 1.40417 45.7285 1.3873 45.8229 1.3873C45.9174 1.3873 46.014 1.40206 46.1084 1.39995C46.2029 1.39784 46.2994 1.41682 46.3939 1.41471C46.4883 1.4126 46.5828 1.14906 46.6794 1.14906C46.7759 1.14906 46.8704 1.31983 46.9669 1.31983C47.0635 1.31983 47.1579 1.18069 47.2524 1.18069C47.3469 1.18069 47.4434 1.3367 47.54 1.3367C47.6365 1.3367 47.731 1.35778 47.8255 1.35778C47.9199 1.35778 48.0165 1.24182 48.1109 1.24182C48.2054 1.24182 48.3019 1.38941 48.3985 1.38941C48.4951 1.38941 48.5895 1.39152 48.684 1.39152C48.7784 1.39152 48.875 1.39362 48.9695 1.39362C49.0639 1.39362 49.1605 1.31983 49.2549 1.31983C49.3494 1.31983 49.4459 1.32405 49.5404 1.32405C49.6349 1.32405 49.7314 1.14484 49.8259 1.14484C49.9203 1.14484 50.0169 1.27345 50.1113 1.27345C50.2058 1.27345 50.3024 1.15539 50.3968 1.15328C50.4913 1.15117 50.5878 1.33459 50.6844 1.33459C50.781 1.33459 50.8754 1.32827 50.9699 1.32616C51.0643 1.32406 51.1609 1.3873 51.2553 1.38519C51.3498 1.38308 51.4464 1.38308 51.5408 1.38308C51.6353 1.38308 51.7318 1.362 51.8263 1.362C51.9207 1.362 52.0173 1.15117 52.1118 1.15117C52.2062 1.15117 52.3028 1.19965 52.3972 1.19965C52.4917 1.19965 52.5883 1.29453 52.6827 1.29453C52.7772 1.29453 52.8737 1.40206 52.9682 1.40206C53.0626 1.40206 53.1592 1.40628 53.2537 1.40628C53.3481 1.40628 53.4447 1.13008 53.5391 1.13008C53.6336 1.13008 53.7302 1.13008 53.8246 1.13008C53.9191 1.13008 54.0156 1.1343 54.1101 1.1343C54.2046 1.1343 54.3011 1.29031 54.3956 1.29031C54.49 1.29031 54.5866 1.19333 54.681 1.19123C54.7755 1.18912 54.8721 1.24816 54.9665 1.24816C55.061 1.24816 55.1575 1.22706 55.252 1.22706C55.3465 1.22706 55.443 1.15539 55.5375 1.15539C55.6319 1.15539 55.7285 1.24182 55.8229 1.24182C55.9174 1.24182 56.014 1.2081 56.1084 1.2081C56.2029 1.2081 56.2994 1.18489 56.3939 1.18489C56.4883 1.18489 56.5849 1.23549 56.6794 1.23549C56.7738 1.23549 56.8704 1.20388 56.9648 1.20388C57.0593 1.20388 57.1558 1.37254 57.2503 1.37254C57.3448 1.37254 57.4413 1.3114 57.5358 1.3114C57.6302 1.3114 57.7268 1.29875 57.8213 1.29875C57.9157 1.29875 58.0123 1.27555 58.1067 1.27555C58.2012 1.27555 58.2977 1.37887 58.3922 1.37887C58.4867 1.37887 58.5832 1.25236 58.6777 1.25236C58.7721 1.25236 58.8687 1.21441 58.9632 1.21441C59.0576 1.21441 59.1542 1.13852 59.2486 1.13852C59.3431 1.13852 59.4396 1.16804 59.5341 1.16804C59.6286 1.16804 59.7251 1.25658 59.8196 1.25658C59.914 1.25658 60.0106 1.39573 60.1051 1.39573C60.1995 1.39573 60.2961 1.16171 60.3905 1.16171C60.485 1.16171 60.5815 1.23549 60.676 1.23549C60.7705 1.23549 60.867 1.23549 60.9615 1.23549C61.0559 1.23549 61.1525 1.26501 61.247 1.2629C61.3414 1.26079 61.438 1.29031 61.5324 1.29031C61.6269 1.29031 61.7234 1.19334 61.8179 1.19334C61.9124 1.19334 62.0089 1.40206 62.1034 1.40206C62.1978 1.40206 62.2944 1.33037 62.3889 1.33037C62.4833 1.33037 62.5799 1.2629 62.6743 1.2629C62.7688 1.2629 62.8653 1.19965 62.9598 1.19965C63.0543 1.19965 63.1508 1.39152 63.2453 1.39152C63.3397 1.39152 63.4363 1.34513 63.5308 1.34513C63.6252 1.34513 63.7218 1.40206 63.8162 1.40206C63.9107 1.40206 64.0072 1.32616 64.1017 1.32616C64.1962 1.32616 64.2927 1.27345 64.3872 1.27345C64.4816 1.27345 64.5782 1.26501 64.6727 1.26501C64.7671 1.26501 64.8637 1.3367 64.9581 1.3367C65.0526 1.3367 65.1491 1.38519 65.2436 1.38519C65.3381 1.38519 65.4346 1.13641 65.5291 1.13641C65.6235 1.13641 65.7201 1.13641 65.8145 1.13641C65.909 1.13641 66.0056 1.32616 66.1 1.32405C66.1945 1.32195 66.291 1.40206 66.3855 1.40206C66.4799 1.40206 66.5765 1.41893 66.671 1.41893C66.7654 1.41893 66.862 1.23549 66.9564 1.23549C67.0509 1.23549 67.1475 1.39362 67.2419 1.39362C67.3364 1.39362 67.4329 1.29664 67.5274 1.29664C67.6218 1.29664 67.7184 1.25236 67.8129 1.25236C67.9073 1.25236 68.0039 1.25447 68.0983 1.25447C68.1928 1.25447 68.2894 1.20177 68.3838 1.20177C68.4783 1.20177 68.5748 1.2123 68.6693 1.2123C68.7637 1.2123 68.8603 1.21019 68.9548 1.21019C69.0492 1.21019 69.1458 1.35357 69.2402 1.35146C69.3347 1.34935 69.4313 1.20599 69.5257 1.20599C69.6202 1.20599 69.7167 1.32194 69.8112 1.32194C69.9056 1.32194 70.0022 1.13008 70.0967 1.13008C70.1911 1.13008 70.2877 1.19754 70.3821 1.19754C70.4766 1.19754 70.5732 1.17225 70.6676 1.17225C70.7621 1.17225 70.8586 1.37254 70.9552 1.37043C71.0517 1.36832 71.1462 1.2081 71.2407 1.2081C71.3351 1.2081 71.4317 1.32616 71.5282 1.32405C71.6248 1.32195 71.7192 1.39784 71.8137 1.39784C71.9082 1.39784 72.0026 1.17857 72.0992 1.17647C72.1957 1.17436 72.2902 1.20388 72.3847 1.20388C72.4791 1.20388 72.5757 1.39152 72.6722 1.39152C72.7688 1.39152 72.8611 1.17225 72.9577 1.17225C73.0543 1.17225 73.1487 1.14063 73.2432 1.14063C73.3376 1.14063 73.4342 1.18068 73.5286 1.17858C73.6231 1.17647 73.7197 1.17858 73.8141 1.17858C73.9086 1.17858 74.0051 1.36622 74.1017 1.36622C74.1983 1.36622 74.2927 1.30718 74.3872 1.30718C74.4816 1.30718 74.5782 1.3114 74.6726 1.30929C74.7671 1.30719 74.8637 1.3367 74.9581 1.33459C75.0526 1.33248 75.147 1.15539 75.2436 1.15539C75.3402 1.15539 75.4346 1.30929 75.5312 1.30718C75.6277 1.30507 75.7201 1.18489 75.8166 1.18489C75.9132 1.18489 76.0077 1.30086 76.1042 1.30086C76.2008 1.30086 76.2952 1.19545 76.3897 1.19545C76.4841 1.19545 76.5807 1.25025 76.6752 1.25025C76.7696 1.25025 76.8662 1.24182 76.9606 1.24182C77.0551 1.24182 77.1516 1.29031 77.2461 1.29031C77.3406 1.29031 77.435 1.12165 77.5316 1.12165C77.6281 1.12165 77.7247 1.34513 77.8192 1.34513C77.9136 1.34513 78.0102 1.32194 78.1046 1.31983C78.1991 1.31772 78.2957 1.28399 78.3901 1.28399C78.4846 1.28399 78.5811 1.30507 78.6756 1.30296C78.77 1.30085 78.8666 1.27555 78.9611 1.27555C79.0555 1.27555 79.15 1.13851 79.2465 1.13641C79.3431 1.1343 79.4376 1.23549 79.5341 1.23549C79.6307 1.23549 79.7251 1.25658 79.8196 1.25658C79.914 1.25658 80.0106 1.30507 80.1072 1.30296C80.2037 1.30085 80.2982 1.23128 80.3926 1.22917C80.4871 1.22707 80.5816 1.09846 80.6781 1.09846C80.7747 1.09846 80.8712 1.2861 80.9657 1.28399C81.0601 1.28189 81.1567 1.26712 81.2512 1.26501C81.3456 1.2629 81.4401 1.06262 81.5345 1.06262C81.629 1.06262 81.7276 1.29453 81.8242 1.29453C81.9208 1.29453 82.0152 1.29875 82.1097 1.29875C82.2041 1.29875 82.3007 1.30929 82.3951 1.30718C82.4896 1.30507 82.5862 1.27556 82.6806 1.27345C82.7751 1.27135 82.8674 1.0584 82.964 1.0584C83.0606 1.0584 83.1571 1.28188 83.2537 1.27977C83.3502 1.27766 83.4426 1.08581 83.537 1.0837C83.6315 1.08159 83.726 1.03099 83.8225 1.02888C83.9191 1.02677 84.0156 1.22284 84.1122 1.22284C84.2088 1.22284 84.3032 1.2081 84.3977 1.2081C84.4921 1.2081 84.5887 1.28188 84.6852 1.27977C84.7818 1.27766 84.8721 1.0837 84.9686 1.0837C85.0652 1.0837 85.1596 1.13641 85.2562 1.13641C85.3528 1.13641 85.4451 1.05629 85.5417 1.05418C85.6382 1.05207 85.7348 1.18489 85.8292 1.18489C85.9237 1.18489 86.0182 1.10057 86.1147 1.09846C86.2113 1.09635 86.3057 1.04575 86.4002 1.04364C86.4946 1.04153 86.5912 1.04153 86.6878 1.03942C86.7843 1.03731 86.883 1.24815 86.9774 1.24605C87.0719 1.24394 87.1684 1.22706 87.2629 1.22495C87.3574 1.22285 87.4518 1.13009 87.5484 1.12798C87.6449 1.12587 87.7373 0.971949 87.8318 0.971949C87.9262 0.971949 88.0249 1.09214 88.1214 1.09003C88.218 1.08792 88.3103 1.0078 88.4069 1.00569C88.5035 1.00358 88.6 1.0584 88.6945 1.05629C88.7889 1.05418 88.8834 0.940329 88.9779 0.938221C89.0723 0.936112 89.171 0.984609 89.2654 0.982501C89.3599 0.980393 89.4585 1.09003 89.5551 1.08792C89.6517 1.08581 89.7461 1.10479 89.8427 1.10268C89.9392 1.10057 90.0316 1.0078 90.1281 1.00569C90.2247 1.00358 90.3234 1.14063 90.4178 1.13852C90.5123 1.13641 90.6088 1.11744 90.7033 1.11533C90.7977 1.11322 90.8901 0.921348 90.9846 0.91924C91.079 0.917132 91.1777 0.95931 91.2721 0.957202C91.3666 0.955093 91.4611 0.862321 91.5576 0.860213C91.6542 0.858104 91.7549 1.09214 91.8494 1.09003C91.9438 1.08792 92.0362 0.906601 92.1307 0.904493C92.2251 0.902384 92.3259 1.0584 92.4224 1.05629C92.519 1.05418 92.6093 0.898159 92.7058 0.896051C92.8024 0.893943 92.901 1.07105 92.9976 1.06894C93.0941 1.06683 93.1886 1.07105 93.2852 1.06894C93.3817 1.06683 93.4741 0.967737 93.5685 0.96352C93.663 0.959303 93.7553 0.82226 93.8519 0.818043C93.9485 0.813826 94.0513 1.08369 94.1458 1.07948C94.2402 1.07526 94.3305 0.811723 94.425 0.809614C94.5194 0.807506 94.6244 1.06683 94.7188 1.06472C94.8133 1.06261 94.9035 0.80961 94.998 0.805393C95.0925 0.801177 95.1932 0.948758 95.2898 0.94665C95.3863 0.944541 95.4787 0.828593 95.5732 0.826485C95.6676 0.824376 95.7684 0.980388 95.8649 0.97828C95.9615 0.976172 96.0517 0.820149 96.1462 0.815933C96.2407 0.811716 96.3414 0.967737 96.438 0.96352C96.5345 0.959303 96.629 0.967737 96.7255 0.96352C96.8221 0.959303 96.9166 0.963516 97.0131 0.959299C97.1097 0.955082 97.1999 0.841241 97.2965 0.837024C97.3931 0.832807 97.4854 0.754791 97.5799 0.750574C97.6743 0.746357 97.7772 0.948758 97.8737 0.94665C97.9703 0.944541 98.0585 0.716844 98.1529 0.714736C98.2474 0.712627 98.3523 0.944548 98.4468 0.940331C98.5412 0.936114 98.6357 0.830691 98.7302 0.828582C98.8246 0.826474 98.9191 0.765332 99.0156 0.763224C99.1122 0.761115 99.2046 0.704194 99.3011 0.702086C99.3977 0.699978 99.4984 0.870748 99.5929 0.866531C99.6873 0.862314 99.786 0.898159 99.8805 0.896051C99.9749 0.893943 100.067 0.754791 100.164 0.750574C100.26 0.746357 100.355 0.744254 100.451 0.742145C100.548 0.740037 100.638 0.594556 100.733 0.592447C100.827 0.590339 100.924 0.611424 101.02 0.607207C101.117 0.602991 101.211 0.607207 101.308 0.607207C101.404 0.607207 101.503 0.75268 101.6 0.748464C101.696 0.744247 101.791 0.737922 101.887 0.735814C101.984 0.733706 102.078 0.712623 102.173 0.710515C102.267 0.708406 102.359 0.598774 102.456 0.594558C102.553 0.590341 102.653 0.750572 102.748 0.748464C102.842 0.746355 102.935 0.609314 103.031 0.605097C103.128 0.60088 103.226 0.727383 103.323 0.725275C103.419 0.723166 103.512 0.619866 103.606 0.615649C103.701 0.611432 103.795 0.535526 103.892 0.53131C103.988 0.527093 104.085 0.569254 104.179 0.565038C104.274 0.560821 104.375 0.649375 104.469 0.647267C104.563 0.645158 104.662 0.721063 104.759 0.716846C104.855 0.712629 104.948 0.617757 105.042 0.615649C105.137 0.613541 105.231 0.552397 105.328 0.54818C105.424 0.543963 105.516 0.470168 105.611 0.465951C105.705 0.461734 105.804 0.501788 105.899 0.499679C105.993 0.497571 106.094 0.638834 106.19 0.634617C106.287 0.6304 106.375 0.444869 106.472 0.440652C106.568 0.436435 106.663 0.428 106.759 0.425892C106.856 0.423784 106.959 0.666245 107.055 0.664137C107.152 0.662029 107.24 0.438537 107.334 0.434321C107.429 0.430104 107.527 0.506008 107.624 0.5039C107.721 0.501792 107.811 0.385831 107.907 0.383722C108.004 0.381614 108.107 0.619866 108.201 0.615649C108.296 0.611432 108.392 0.619866 108.489 0.615649C108.585 0.611432 108.671 0.36264 108.768 0.358423C108.864 0.354206 108.965 0.569254 109.062 0.565038C109.158 0.560821 109.249 0.444871 109.345 0.442762C109.442 0.440654 109.532 0.297283 109.629 0.295175C109.725 0.293067 109.822 0.37951 109.918 0.375293C110.015 0.371077 110.107 0.276192 110.202 0.274084C110.296 0.271975 110.403 0.558715 110.498 0.554498C110.592 0.550282 110.687 0.501788 110.783 0.499679C110.88 0.497571 110.972 0.423777 111.069 0.419561C111.165 0.415344 111.262 0.442758 111.356 0.438542C111.451 0.434325 111.549 0.461739 111.644 0.457522C111.738 0.453306 111.837 0.506008 111.931 0.5039C112.026 0.501792 112.118 0.375291 112.215 0.373183C112.311 0.371075 112.404 0.293062 112.5 0.290954C112.597 0.288846 112.695 0.409019 112.79 0.406911C112.884 0.404803 112.979 0.309933 113.073 0.307825C113.168 0.305716 113.268 0.40692 113.363 0.402703C113.457 0.398486 113.552 0.337343 113.648 0.335234C113.745 0.333126 113.835 0.217165 113.932 0.215056C114.028 0.212948 114.129 0.434319 114.226 0.43221C114.322 0.430102 114.412 0.2783 114.509 0.274084C114.605 0.269867 114.704 0.379512 114.799 0.377404C114.893 0.375296 114.985 0.193976 115.08 0.191868C115.174 0.189759 115.275 0.303602 115.37 0.301493C115.464 0.299385 115.558 0.202405 115.653 0.200296C115.747 0.198188 115.848 0.347882 115.945 0.345773C116.041 0.343665 116.134 0.269874 116.23 0.267765C116.327 0.265657 116.417 0.141267 116.514 0.139159C116.61 0.13705 116.705 0.124397 116.799 0.122288C116.893 0.12018 116.99 0.0927769 117.084 0.0885602C117.179 0.0843435 117.278 0.151806 117.372 0.149698C117.467 0.14759 117.565 0.130715 117.662 0.128607C117.758 0.126498 117.855 0.200294 117.951 0.198186C118.048 0.196078 118.145 0.250893 118.241 0.248784C118.338 0.246676 118.434 0.248784 118.529 0.248784C118.623 0.248784 118.72 0.0505985 118.816 0.0505985C118.913 0.0505985 119.011 0.322583 119.106 0.320474C119.2 0.318366 119.297 0.0653564 119.393 0.0632481C119.49 0.0611397 119.587 0.115957 119.683 0.115957C119.78 0.115957 119.876 0.217167 119.973 0.217167C120.069 0.217167 120.164 0.174995 120.26 0.172887C120.357 0.170778 120.451 0.147585 120.548 0.145477C120.645 0.143369 120.741 0.168677 120.838 0.166568C120.934 0.16446 121.029 0.118065 121.125 0.115957C121.222 0.113849 121.318 0.139157 121.415 0.137048C121.511 0.13494 121.61 0.227702 121.707 0.223485C121.803 0.219268 121.9 0.240354 121.996 0.238245C122.093 0.236137 122.183 0.128615 122.28 0.124399C122.376 0.120182 122.469 0.0653673 122.565 0.0611505C122.662 0.0569338 122.762 0.124392 122.857 0.118067C122.951 0.111742 123.134 0.00843342 123.231 0L123.291 0.0105392Z" fill="white"/>
</svg>
