<svg width="20" height="20" viewBox="0 0 20 20" fill="none" xmlns="http://www.w3.org/2000/svg">
<path d="M9.73267 6.81285C8.11958 6.81285 6.81285 8.12005 6.81285 9.73265C6.81285 11.3456 8.12007 12.6524 9.73267 12.6524C11.3457 12.6524 12.6525 11.3453 12.6525 9.73265C12.6525 8.11966 11.3453 6.81285 9.73267 6.81285ZM9.73267 4.86632C12.4193 4.86632 14.599 7.04362 14.599 9.73265C14.599 12.4193 12.4217 14.599 9.73267 14.599C7.04598 14.599 4.86632 12.4217 4.86632 9.73265C4.86632 7.04598 7.04362 4.86632 9.73267 4.86632ZM16.0589 4.62218C16.0589 5.29384 15.5131 5.83878 14.8423 5.83878C14.1707 5.83878 13.6257 5.293 13.6257 4.62218C13.6257 3.95136 14.1714 3.40643 14.8423 3.40643C15.5122 3.40558 16.0589 3.95136 16.0589 4.62218ZM9.73267 1.94653C7.32433 1.94653 6.93179 1.9529 5.81165 2.00278C5.04849 2.03861 4.53692 2.14125 4.06161 2.32578C3.63921 2.4896 3.33451 2.68522 3.00986 3.00987C2.68396 3.33577 2.4887 3.63965 2.32554 4.06224C2.14058 4.53865 2.03797 5.04941 2.00278 5.81151C1.95242 6.88604 1.94653 7.26158 1.94653 9.73265C1.94653 12.141 1.95291 12.5335 2.00278 13.6535C2.03862 14.4164 2.1414 14.9287 2.32548 15.4029C2.48973 15.8259 2.68574 16.1313 3.00883 16.4544C3.33601 16.7811 3.6408 16.9771 4.05938 17.1386C4.54049 17.3246 5.05173 17.4274 5.8115 17.4625C6.88604 17.5128 7.26158 17.5188 9.73267 17.5188C12.141 17.5188 12.5335 17.5123 13.6536 17.4625C14.4148 17.4268 14.9275 17.3237 15.4029 17.1398C15.8247 16.976 16.1311 16.7793 16.4544 16.4565C16.7816 16.1288 16.9772 15.8247 17.1389 15.4051C17.3244 14.9258 17.4274 14.4139 17.4625 13.6538C17.5128 12.5793 17.5188 12.2037 17.5188 9.73265C17.5188 7.32433 17.5124 6.9318 17.4625 5.81173C17.4267 5.05033 17.3236 4.53687 17.1395 4.06161C16.9761 3.64038 16.7798 3.33475 16.4554 3.00987C16.129 2.68344 15.8259 2.48857 15.403 2.32554C14.927 2.14074 14.4154 2.03798 13.6538 2.00279C12.5793 1.95242 12.2037 1.94653 9.73267 1.94653ZM9.73267 0C12.3766 0 12.7068 0.00973259 13.745 0.0583958C14.7806 0.106251 15.4871 0.270081 16.1076 0.510964C16.749 0.758339 17.2908 1.09249 17.8318 1.63346C18.372 2.17444 18.7062 2.71784 18.9544 3.35776C19.1944 3.97741 19.3583 4.68465 19.4069 5.72037C19.4532 6.75852 19.4653 7.08861 19.4653 9.73265C19.4653 12.3767 19.4556 12.7068 19.4069 13.7449C19.359 14.7807 19.1944 15.4871 18.9544 16.1075C18.7069 16.7491 18.372 17.2908 17.8318 17.8319C17.2908 18.372 16.7466 18.7062 16.1076 18.9543C15.4871 19.1944 14.7806 19.3582 13.745 19.4069C12.7068 19.4531 12.3766 19.4653 9.73267 19.4653C7.08861 19.4653 6.75851 19.4556 5.72036 19.4069C4.68465 19.359 3.97903 19.1944 3.35776 18.9543C2.71703 18.7069 2.17443 18.372 1.63346 17.8319C1.09249 17.2908 0.759147 16.7467 0.510964 16.1075C0.270081 15.4871 0.107059 14.7807 0.0583961 13.7449C0.012166 12.7068 0 12.3767 0 9.73265C0 7.08861 0.00973282 6.75852 0.0583961 5.72037C0.106242 4.68384 0.270081 3.97822 0.510964 3.35776C0.758329 2.71703 1.09249 2.17444 1.63346 1.63346C2.17443 1.09249 2.71784 0.759147 3.35776 0.510964C3.97822 0.270081 4.68384 0.107059 5.72036 0.0583958C6.75851 0.0121658 7.08861 0 9.73267 0Z" fill="white"/>
</svg>
