<svg width="255" height="70" viewBox="0 0 255 70" fill="none" xmlns="http://www.w3.org/2000/svg">
<path d="M26.5287 1.53289C32.0296 -0.696661 37.1281 -0.475004 41.6752 2.18914C48.0639 5.92733 50.6378 13.5755 47.9408 20.7809C46.1811 25.4945 42.8752 29.3062 37.5551 32.7819L36.8812 33.1921C37.2266 33.7905 37.7113 34.5535 40.6136 39.5534C46.7232 50.0545 51.1888 48.3171 51.1888 48.3171C50.679 44.9069 50.2188 39.6931 51.3617 35.9714C52.5951 31.725 54.9628 27.7649 57.849 25.0925C61.2039 22.1825 65.3566 21.5019 68.6293 22.4528C70.0436 22.8709 71.2853 23.617 72.3461 24.6745L72.7904 21.0348L79.722 20.8054C78.0117 28.257 76.9176 37.2255 76.9916 45.3903C77.0903 45.2591 77.1972 45.1275 77.3041 45.0046L77.3373 44.9723C77.5264 44.7675 77.7318 44.5704 77.9291 44.3737C78.7103 43.6113 79.5494 42.8652 80.4457 42.152C81.8846 40.9962 83.4714 39.9058 85.1898 38.8893C85.6503 38.6106 86.1027 38.3565 86.5385 38.1188L83.2738 20.322L87.9691 16.3708L88.3558 16.5104C92.1465 17.8876 95.781 18.6746 99.1605 18.8386H99.3334L100.673 26.3141C99.2839 26.2896 98.7821 26.2817 98.6342 26.2653C96.4058 26.0112 93.4124 25.5026 91.8666 25.2321L93.6517 34.8805C94.408 34.5937 95.1726 34.3235 95.9535 34.0612C97.2937 33.6104 98.6753 33.1926 100.065 32.8073C101.709 32.3482 103.437 31.9295 105.204 31.5524L102.87 18.7233L103.675 18.6745C106.553 18.5106 109.612 18.7149 112.227 17.2721C113.633 16.5016 114.792 15.2881 115.499 13.8454C117.81 14.6323 120.145 15.354 122.472 16.1081C121.568 17.8951 120.664 19.3793 119.718 20.6335C119.241 21.2646 118.698 21.8546 118.115 22.3874C117.556 22.9038 116.922 23.3793 116.24 23.822L116.165 23.863L116.05 23.9206C115.713 24.0927 115.335 24.2647 114.924 24.445C113.913 24.8877 112.876 25.2483 111.824 25.527L112.696 30.2409C115.319 29.8966 118.83 29.6017 121.214 29.405C122.513 29.2984 123.829 29.2082 125.128 29.1345L130.769 28.8718C130.045 31.2162 129.347 33.5609 128.763 35.9382C128.36 37.5693 128.056 39.0612 127.85 40.3727C127.562 42.1104 127.513 44.8486 128.302 45.5212C129.141 46.2426 130.622 46.4562 131.888 46.03C133.31 45.5626 134.297 44.3731 134.667 42.7009L136.931 31.8063L145.504 32.0114L142.339 46.3161C140.834 52.7264 139.37 58.801 137.356 62.7604C136.122 65.1951 134.363 67.4912 131.896 68.7536C128.821 70.3275 125.029 70.4009 121.864 69.0319C118.205 67.4497 116.042 63.687 114.29 60.3014L113.978 59.7028L120.885 55.6784L121.239 56.3171C121.773 57.2926 123.312 59.9734 124.043 60.6374C124.734 61.2685 125.72 61.5965 126.773 61.5309C127.858 61.4654 128.845 60.9986 129.487 60.2526C130.86 58.6378 131.222 56.4409 131.929 54.4899C129.808 55.2441 127.11 55.3095 125.087 54.2848C123.27 53.3667 121.609 52.0713 120.803 50.1696C119.126 46.1938 120.047 41.2171 120.836 37.1511C118.748 37.397 116.091 37.7495 114.077 38.0856L116.412 53.0798H109.143L106.668 39.6354C104.761 40.1027 102.959 40.5618 101.298 41.111C99.3907 41.7422 97.5656 42.4393 95.8636 43.1852L95.1888 43.488L98.059 59.5143H90.3539L89.2357 53.2516L88.1586 47.2096C85.6753 48.6196 83.5783 50.6779 81.8021 52.8913C81.6296 53.1043 81.4731 53.3334 81.3334 53.571C81.3251 53.5792 81.309 53.5964 81.309 53.5964V53.612L72.3871 53.9401L71.6635 50.0876C71.129 50.8827 70.5864 51.6287 70.0355 52.2927V52.3005C69.978 52.3661 69.9202 52.4322 69.8627 52.4977C69.3776 53.0633 68.8427 53.5958 68.2836 54.0876C67.8231 54.4974 67.3379 54.8826 66.8363 55.235C65.7921 55.9727 64.6414 56.5718 63.4164 56.9489C62.0596 57.3752 60.6445 57.5311 59.2631 57.154C57.9641 56.7933 56.6652 56.1701 55.6293 55.3014C55.6293 55.3014 54.0827 56.5309 50.5551 56.5309C44.0591 56.5308 38.5167 52.2923 35.6058 47.0378L30.9027 39.0944L29.184 36.1677L25.4017 56.572L16.0355 57.3503L24.3324 23.7653L30.7465 23.2897L32.9506 26.6012C37.0125 24.019 39.5119 20.969 40.5726 17.2966C41.3537 14.6079 40.77 12.0093 38.9857 10.1813C37.1356 8.30417 34.3232 7.63165 31.4535 8.37762C28.5591 9.13179 25.936 10.501 23.4281 12.5749C22.096 13.6651 20.8131 14.9439 19.4974 16.485C18.3134 17.8704 17.2696 19.3628 16.3158 20.7809C16.0691 21.0924 15.6905 21.2401 15.3451 21.1745C14.9669 21.1007 14.7366 20.8057 14.7201 20.3796C14.5393 20.5107 14.3745 20.6248 14.2347 20.7477C14.0128 20.928 13.8489 21.0762 13.6927 21.2155L12.2201 22.5602C12.0064 22.7568 11.7842 22.8955 11.5541 22.9938C11.1512 23.1659 10.8387 23.1579 10.6332 22.9694C10.28 22.6414 10.3782 21.9203 10.6166 21.1091C9.98363 21.4205 9.38341 21.6905 8.80798 21.9118L8.59412 21.9938C7.59132 22.3954 6.9583 22.6254 6.62927 22.5846C6.23458 22.5273 5.96299 22.3794 5.83142 22.1335C5.593 21.6909 5.88025 21.1089 6.13513 20.5925C6.18447 20.4941 6.23464 20.3955 6.27576 20.3054H6.24255C6.05345 20.289 5.76558 20.289 5.42029 20.3054C4.13756 20.3627 2.87955 20.1247 1.77771 19.6247C1.39127 19.4526 1.10356 19.2886 0.914429 19.1247C0.593737 18.846 -0.146923 18.1326 0.0257568 17.485C0.116357 17.141 0.445579 16.9115 0.979858 16.8132C1.68692 16.682 2.41871 16.617 3.11755 16.5514C3.97262 16.4695 4.86071 16.3868 5.724 16.1901L6.21814 16.0016C9.11244 14.8622 11.8011 12.96 13.9965 10.5173C17.6967 6.39393 21.7924 3.45931 26.5287 1.53289ZM154.097 1.52508C159.598 -0.704667 164.697 -0.492064 169.245 2.18035C175.633 5.91851 178.207 13.5675 175.51 20.7731C173.75 25.4866 170.444 29.2984 165.124 32.7741L164.442 33.1843C164.787 33.7826 165.273 34.5457 168.175 39.5456C174.263 50.0093 178.718 48.3203 178.749 48.3083C178.24 44.8981 177.779 39.6842 178.922 35.9626C180.156 31.7163 182.524 27.741 185.411 25.0768C188.765 22.1667 192.918 21.4863 196.191 22.4372C197.588 22.8635 198.83 23.6007 199.899 24.6579L200.161 22.527L206.798 23.027C205.014 30.8311 204.381 38.0449 204.57 46.5212C207.11 43.0783 209.265 40.7748 214.001 39.0534L211.624 23.3718L220.275 24.0436L223.153 42.9802L230.365 26.6501L237.313 27.3307L239.698 42.9714L246.872 26.6843L255 27.6911L242.222 58.9245L234.64 58.1296L232.075 39.8893L225.537 57.277L216.657 56.5387L215.168 46.8083C211.953 48.6856 209.964 52.3748 207.703 55.9079L198.747 55.2682L198.37 51.3903C197.243 52.874 195.911 54.2104 194.381 55.2761C192.802 56.3745 190.944 57.2025 189.003 57.3747C186.964 57.5549 184.752 56.6122 183.206 55.3171C183.206 55.3171 181.661 56.5465 178.133 56.5466C171.637 56.5466 166.095 52.3089 163.184 47.0544L158.48 39.111L156.762 36.1843L153.596 53.2438H145.603L152.288 22.2233L158.727 22.3708L160.528 26.6091C164.59 24.0269 167.09 20.9778 168.151 17.3054C168.932 14.6086 168.348 12.0182 166.564 10.1901C164.714 8.30476 161.901 7.63182 159.032 8.37762C156.137 9.1318 153.513 10.5009 151.005 12.5749C149.673 13.665 148.391 14.9441 147.076 16.485C145.9 17.8622 144.855 19.3628 143.901 20.7809C143.654 21.0923 143.276 21.24 142.931 21.1745C142.553 21.1089 142.323 20.8057 142.306 20.3796C142.125 20.5107 141.96 20.633 141.821 20.7477C141.599 20.9281 141.434 21.0761 141.278 21.2155L139.798 22.5602C139.585 22.7569 139.362 22.9043 139.132 23.0026C138.729 23.1666 138.417 23.1579 138.211 22.9694C137.858 22.6497 137.956 21.9206 138.195 21.1091C137.562 21.4206 136.961 21.6823 136.385 21.9118L136.171 21.9938C135.168 22.3954 134.527 22.6256 134.206 22.5846C133.812 22.5273 133.54 22.3794 133.409 22.1335C133.17 21.6908 133.458 21.1089 133.713 20.5925C133.763 20.4941 133.812 20.3955 133.853 20.3054H133.82C133.622 20.289 133.335 20.289 132.99 20.3054C131.715 20.3627 130.449 20.1247 129.347 19.6247C128.961 19.4444 128.673 19.2807 128.484 19.1169C128.155 18.8382 127.422 18.1248 127.595 17.4772C127.686 17.1329 128.006 16.9037 128.549 16.8054C129.265 16.6742 129.988 16.6082 130.687 16.5427C131.542 16.4689 132.422 16.3872 133.293 16.1823L133.787 15.9938C136.682 14.8544 139.37 12.9522 141.566 10.5095C145.266 6.38622 149.361 3.45152 154.097 1.52508ZM65.8002 28.528C65.6852 28.528 65.57 28.5273 65.4633 28.5436C64.1725 28.6912 62.9394 29.585 62.1254 30.3063C60.1602 32.036 58.5312 34.7739 57.6595 37.8151C56.8126 40.5531 56.5992 43.6523 57.0844 46.1198C57.4543 47.9968 58.1944 49.3737 59.222 50.0788C59.477 50.2509 59.7569 50.3822 60.0365 50.4723C60.4393 50.5789 60.8256 50.6035 61.2777 50.5544C64.01 50.2288 67.3365 46.3183 68.85 41.7292L68.9994 41.2995C69.9779 38.1681 70.1422 34.9711 69.4515 32.5446C68.8924 30.3149 67.9381 29.0112 66.6224 28.6423C66.343 28.5686 66.0714 28.528 65.8002 28.528ZM193.362 28.5114C193.247 28.5114 193.132 28.5116 193.025 28.528C191.742 28.6755 190.501 29.5684 189.695 30.2897C187.729 32.0194 186.101 34.7582 185.229 37.7995C184.382 40.5374 184.169 43.6359 184.654 46.1032C185.024 47.9886 185.764 49.366 186.791 50.071C187.046 50.2431 187.326 50.3744 187.606 50.4645C188.017 50.571 188.403 50.5957 188.847 50.5466C191.579 50.2289 194.906 46.3108 196.419 41.7214L196.552 41.2829C197.531 38.1515 197.695 34.9544 197.004 32.528C196.453 30.3065 195.5 28.9946 194.184 28.6257C193.904 28.5437 193.625 28.5114 193.362 28.5114ZM136.931 31.8063H136.895L136.937 31.7819L136.931 31.8063ZM246.872 26.6843L246.86 26.6833L246.884 26.6589L246.872 26.6843Z" fill="white"/>
</svg>
